<svg xmlns="http://www.w3.org/2000/svg" width="18" height="25" viewBox="0 0 18 25">
  <defs>
    <style>
      .cls-1 {
        fill: #009ea7;
        fill-rule: evenodd;
      }
    </style>
  </defs>
  <path id="map-pin" class="cls-1" d="M765,3335s-9-11.03-9-16a9,9,0,0,1,18,0C774,3323.97,765,3335,765,3335Zm0-23a7.062,7.062,0,0,0-7,7.12c0,3.94,7,12.88,7,12.88s7-8.94,7-12.88A7.062,7.062,0,0,0,765,3312Zm-4,7a4,4,0,1,1,4,4A4,4,0,0,1,761,3319Zm6,0a2,2,0,1,0-2,2A2,2,0,0,0,767,3319Z" transform="translate(-756 -3310)"/>
</svg>
