<svg xmlns="http://www.w3.org/2000/svg" width="30" height="10" viewBox="0 0 30 10">
  <defs>
    <style>
      .cls-1 {
        fill: #e4bd63;
        fill-rule: evenodd;
      }
    </style>
  </defs>
  <path class="cls-1" d="M924.369,35c-2,0-5.709,0-7.207-2.28a6.4,6.4,0,0,1-.794-1.758l-0.685-.819a0.674,0.674,0,0,1,.113-0.976,0.731,0.731,0,0,1,.276-0.131V29.022a3.827,3.827,0,0,0-2.144,0v0.013a0.731,0.731,0,0,1,.276.131,0.675,0.675,0,0,1,.113.976l-0.685.819a6.43,6.43,0,0,1-.794,1.758C911.34,35,907.626,35,905.631,35c-3.22,0-4.173-1.245-4.455-1.988a8.713,8.713,0,0,1-.3-2.688l-0.61-.478A0.683,0.683,0,0,1,900,29.31V28.161a0.706,0.706,0,0,1,.653-0.691l0.661-.062a3.784,3.784,0,0,1,.342-0.729A3.209,3.209,0,0,1,904.365,25H908.2a24.7,24.7,0,0,1,2.511.177h0a6.088,6.088,0,0,1,.957.207h6.672a6.063,6.063,0,0,1,.957-0.207h0A24.68,24.68,0,0,1,921.8,25h3.83a3.208,3.208,0,0,1,2.709,1.678,3.669,3.669,0,0,1,.342.729l0.662,0.063a0.706,0.706,0,0,1,.653.691V29.31a0.681,0.681,0,0,1-.266.537l-0.609.478a8.745,8.745,0,0,1-.3,2.688C928.542,33.755,927.589,35,924.369,35Zm-6.634-4.5a5.124,5.124,0,0,0,.653,1.48c1.072,1.632,4.265,1.632,5.981,1.632,1.681,0,2.838-.4,3.093-1.074a7.973,7.973,0,0,0,.214-2.452,0.658,0.658,0,0,1,0-.117,8.738,8.738,0,0,0-.221-1.676,0.672,0.672,0,0,1-.037-0.141,2.947,2.947,0,0,0-.314-0.761,1.8,1.8,0,0,0-1.4-1,0.268,0.268,0,0,1-.046,0h-3.835c-0.093,0-1.33.027-2.324,0.163h0a4.478,4.478,0,0,0-.781.177l-0.035.012a1.507,1.507,0,0,0-1.01.742,4.451,4.451,0,0,0-.151,1.013,0.622,0.622,0,0,1,0,.143,6.6,6.6,0,0,0,.2,1.789C917.723,30.452,917.73,30.477,917.735,30.5Zm-15.411-.415a7.97,7.97,0,0,0,.214,2.452c0.255,0.673,1.411,1.074,3.093,1.074,1.715,0,4.908,0,5.98-1.632a5.127,5.127,0,0,0,.654-1.48c0-.024.012-0.049,0.019-0.073a6.6,6.6,0,0,0,.2-1.789,0.624,0.624,0,0,1,0-.143,4.452,4.452,0,0,0-.151-1.013,1.506,1.506,0,0,0-1.01-.742l-0.035-.012a4.478,4.478,0,0,0-.781-0.177,23.276,23.276,0,0,0-2.324-.163h-3.835a0.264,0.264,0,0,1-.046,0,1.8,1.8,0,0,0-1.4,1,2.947,2.947,0,0,0-.314.761,0.678,0.678,0,0,1-.038.141,8.815,8.815,0,0,0-.22,1.676A0.665,0.665,0,0,1,902.324,30.086ZM915,27.481a5.34,5.34,0,0,1,1.162.128,4.277,4.277,0,0,1,.118-0.512,1.838,1.838,0,0,1,.132-0.323h-2.824a1.838,1.838,0,0,1,.132.323,4.277,4.277,0,0,1,.118.512A5.34,5.34,0,0,1,915,27.481Z" transform="translate(-900 -25)"/>
</svg>
