<svg xmlns="http://www.w3.org/2000/svg" width="18" height="24" viewBox="0 0 18 24">
  <defs>
    <style>
      .cls-1 {
        fill: #093475;
        fill-rule: evenodd;
      }
    </style>
  </defs>
  <path class="cls-1" d="M1681.63,99.044a6.09,6.09,0,1,0-7.26,0,9.075,9.075,0,0,0-5.37,8.289V111a0.993,0.993,0,0,0,.99,1h16.02a0.993,0.993,0,0,0,.99-1v-3.667A9.075,9.075,0,0,0,1681.63,99.044Zm-7.73-4.911a4.1,4.1,0,1,1,4.1,4.133A4.122,4.122,0,0,1,1673.9,94.133ZM1685.01,110h-14.02v-2.667a7.01,7.01,0,1,1,14.02,0V110Z" transform="translate(-1669 -88)"/>
</svg>
