<svg xmlns="http://www.w3.org/2000/svg" width="16" height="24" viewBox="0 0 16 24">
  <defs>
    <style>
      .cls-1 {
        fill: #009ea7;
        fill-rule: evenodd;
      }
    </style>
  </defs>
  <path id="Rounded_Rectangle_9_copy" data-name="Rounded Rectangle 9 copy" class="cls-1" d="M265.632,3334H254.368a2.424,2.424,0,0,1-2.368-2.47v-19.06a2.424,2.424,0,0,1,2.368-2.47h11.264a2.424,2.424,0,0,1,2.368,2.47v19.06A2.424,2.424,0,0,1,265.632,3334Zm0.448-21.53a0.459,0.459,0,0,0-.448-0.47H263a1,1,0,0,1-1,1h-4a1,1,0,0,1-1-1h-2.632a0.459,0.459,0,0,0-.448.47v19.06a0.459,0.459,0,0,0,.448.47h11.264a0.459,0.459,0,0,0,.448-0.47v-19.06ZM262,3331h-4a1,1,0,0,1,0-2h4A1,1,0,0,1,262,3331Z" transform="translate(-252 -3310)"/>
</svg>
